<svg width="32" height="33" viewBox="0 0 32 33" fill="none" xmlns="http://www.w3.org/2000/svg">
<path d="M0.129383 10.5869H7.80592C7.84017 10.5869 7.87302 10.6009 7.89723 10.6259C7.92145 10.6509 7.93506 10.6848 7.93506 10.7201V18.5089C7.93506 18.5263 7.93172 18.5437 7.92523 18.5598C7.91874 18.576 7.90923 18.5907 7.89724 18.603C7.88525 18.6154 7.87101 18.6252 7.85534 18.6319C7.83968 18.6386 7.82288 18.642 7.80592 18.642H0.387666C0.370705 18.642 0.35391 18.6386 0.33824 18.6319C0.32257 18.6252 0.308333 18.6154 0.29634 18.603C0.284347 18.5907 0.274835 18.576 0.268345 18.5598C0.261855 18.5437 0.258514 18.5263 0.258516 18.5089V12.0336C0.258516 12.0161 0.255177 11.9988 0.248687 11.9826C0.242197 11.9665 0.232687 11.9518 0.220696 11.9394C0.208704 11.9271 0.194466 11.9173 0.178799 11.9106C0.163131 11.9039 0.146341 11.9004 0.129383 11.9004C0.095134 11.9004 0.0622875 11.8864 0.03807 11.8614C0.0138525 11.8364 0.00024616 11.8026 0.00024616 11.7673V10.7201C0.00024616 10.6848 0.0138525 10.6509 0.03807 10.6259C0.0622875 10.6009 0.095134 10.5869 0.129383 10.5869Z" fill="#F04766"/>
<path d="M8.18628 10.2383H0.0001581V11.9509H8.18628V10.2383Z" fill="#00469E"/>
<path d="M27.1972 31.9187C24.8901 31.9187 23.0198 29.99 23.0198 27.6109C23.0198 25.2317 24.8901 23.303 27.1972 23.303C29.5043 23.303 31.3745 25.2317 31.3745 27.6109C31.3745 29.99 29.5043 31.9187 27.1972 31.9187Z" fill="#422B18"/>
<path d="M27.2816 30.9488C25.4939 30.9488 24.0447 29.4543 24.0447 27.6108C24.0447 25.7672 25.4939 24.2727 27.2816 24.2727C29.0693 24.2727 30.5186 25.7672 30.5186 27.6108C30.5186 29.4543 29.0693 30.9488 27.2816 30.9488Z" fill="white"/>
<path d="M26.2176 28.6208C25.6767 28.063 25.6767 27.1586 26.2176 26.6008C26.7585 26.043 27.6355 26.043 28.1764 26.6008C28.7173 27.1586 28.7173 28.063 28.1764 28.6208C27.6355 29.1787 26.7585 29.1787 26.2176 28.6208Z" fill="#422B18"/>
<path d="M23.9004 11.3808C24.022 11.3974 24.1352 11.4538 24.2234 11.5418C24.3116 11.6297 24.37 11.7445 24.3901 11.8693C24.5655 12.929 24.4946 13.4768 24.4157 13.7399C24.3964 13.8029 24.359 13.8583 24.3085 13.8989C24.2581 13.9395 24.1969 13.9633 24.133 13.9673L22.7627 14.0596L22.1686 12.1365C22.1686 12.1365 22.6206 11.215 23.9004 11.3808Z" fill="#F04766"/>
<path d="M27.0336 21.9881L27.035 21.9877C27.035 21.9877 27.0516 22.0276 27.0336 21.9881L27.0336 21.9881ZM24.499 19.4744C24.499 19.4744 25.9726 19.5491 26.5552 20.8921C26.9035 21.695 27.0068 21.9294 27.0336 21.9881L24.2249 22.8712L24.499 19.4744Z" fill="#00469E"/>
<path d="M27.0348 21.9877C29.3441 21.7719 31.0444 25.2407 31.0444 25.2407L22.021 27.1683L23.8682 23.1186C23.8682 23.1186 24.7255 22.2035 27.0348 21.9877Z" fill="#F04766"/>
<path d="M4.94546 32.2268C2.63838 32.2268 0.768122 30.2981 0.768122 27.919C0.768122 25.5398 2.63838 23.6111 4.94546 23.6111C7.25254 23.6111 9.1228 25.5398 9.1228 27.919C9.1228 30.2981 7.25254 32.2268 4.94546 32.2268Z" fill="#422B18"/>
<path d="M5.03018 31.2569C3.24249 31.2569 1.79327 29.7624 1.79327 27.9189C1.79327 26.0753 3.24249 24.5808 5.03018 24.5808C6.81788 24.5808 8.26709 26.0753 8.26709 27.9189C8.26709 29.7624 6.81788 31.2569 5.03018 31.2569Z" fill="white"/>
<path d="M3.9661 28.929C3.42519 28.3711 3.42519 27.4667 3.9661 26.9089C4.507 26.3511 5.38399 26.3511 5.9249 26.9089C6.4658 27.4667 6.46581 28.3711 5.9249 28.929C5.38399 29.4868 4.507 29.4868 3.9661 28.929Z" fill="#422B18"/>
<path d="M4.27945 19.2899C8.87167 19.2664 10.0825 19.1563 10.0825 19.1563C10.0825 19.1563 10.9799 20.7036 12.4504 20.7978C11.9331 22.9654 13.7837 26.8765 17.8962 26.2168C22.0086 25.5571 23.0596 20.68 22.694 18.8894C22.3284 17.0988 21.6659 13.0463 20.7749 12.5987C20.7749 12.5987 21.1861 11.0661 22.3056 11.9384C23.4251 12.8107 23.4709 15.1578 23.8363 16.6511C24.1391 17.888 24.5903 18.0177 24.8188 19.0543C25.0472 20.091 25.0929 25.8563 21.0719 27.7329C17.0508 29.6096 9.51137 28.3137 9.51137 28.3137L0.666248 28.2699C0.577521 28.2694 0.489768 28.2508 0.408089 28.215C0.326409 28.1793 0.252431 28.1271 0.19046 28.0617C0.128489 27.9962 0.0797603 27.9186 0.0471043 27.8336C0.0144483 27.7485 -0.00148183 27.6576 0.000239285 27.5661C0.0341265 25.6941 0.483138 20.6267 4.27945 19.2899Z" fill="#00469E"/>
<path d="M4.31879 18.3621H10.1469C10.2376 18.3621 10.311 18.4378 10.311 18.5313V19.1668C10.311 19.2602 10.2376 19.336 10.1469 19.336H4.31879C4.22816 19.336 4.15468 19.2602 4.15468 19.1668V18.5313C4.15468 18.4378 4.22816 18.3621 4.31879 18.3621Z" fill="#422B18"/>
<path d="M10.1055 16.9339C10.8937 17.252 14.3538 17.9763 14.3538 17.9763C14.3538 17.9763 13.3904 20.0675 12.4505 20.7979C10.1398 20.6448 9.42013 17.9763 9.42013 17.9763C9.42013 17.9763 9.31731 16.6159 10.1055 16.9339Z" fill="#422B18"/>
<path d="M7.47804 20.0205C13.304 21.0807 9.5114 28.3139 9.5114 28.3139C9.5114 28.3139 1.53787 28.4317 0.363835 28.1938C-0.980165 27.9215 1.6521 18.9602 7.47804 20.0205Z" fill="#F04766"/>
<path d="M4.93062 23.8186C7.43845 23.8186 9.47144 25.8559 9.47144 28.3691H0.389809C0.389809 25.8559 2.42281 23.8186 4.93062 23.8186Z" fill="#00469E"/>
<path d="M17.2998 24.7761C17.2998 24.7761 17.4129 24.8468 17.526 25.0942C17.6391 25.3416 18.441 25.6716 19.3149 25.6833C20.1888 25.6951 20.4766 26.2725 20.3019 26.6496C20.1271 27.0266 19.7981 27.2858 18.9756 27.3683C18.1532 27.4508 16.3232 27.2623 15.9325 27.0973C15.5418 26.9323 15.7646 25.0745 15.9325 24.8821C16.2717 24.4933 17.2998 24.7761 17.2998 24.7761Z" fill="#1C5376"/>
<path d="M17.4602 23.7343V25.042C17.4602 25.042 16.7405 25.4661 16.1408 24.9359C16.0551 23.858 16.1408 23.646 16.1408 23.646L17.4602 23.7343Z" fill="#FF8A65"/>
<path d="M13.1594 14.1267C13.1594 14.1267 18.4713 15.4062 18.9168 16.1686C19.3623 16.9311 19.1053 20.7303 18.4028 21.7552C18.0601 23.4516 18.5912 23.5223 17.7859 23.7166C17.7516 24.1584 17.8716 24.1054 17.4432 24.1054C17.0148 24.1054 16.1066 24.1584 15.9524 23.8933C15.9182 23.4692 16.158 23.646 15.7811 23.2572C15.4041 22.8685 15.2841 22.462 15.4212 20.7656C15.5583 19.0693 16.0895 18.8042 15.8496 18.3271L15.5069 18.1681C15.5069 18.1681 14.1875 18.1681 13.6735 18.1327C13.1594 18.0974 10.9325 18.0526 10.6151 17.1915C10.2978 16.3303 13.1594 14.1267 13.1594 14.1267Z" fill="#CC3A54"/>
<path d="M15.9609 18.0339C16.3353 17.873 16.633 17.5662 16.7895 17.1803C16.7995 17.1555 16.8392 17.1663 16.829 17.1915C16.6679 17.5913 16.3596 17.9089 15.9718 18.0747C15.9474 18.0852 15.9368 18.0442 15.9609 18.0339ZM16.0906 18.2384C16.3806 18.3746 16.7388 18.2863 16.9411 18.0339C16.958 18.0129 16.9869 18.043 16.9701 18.0638C16.7553 18.3318 16.3758 18.4186 16.0699 18.2749C16.0459 18.2637 16.0667 18.2272 16.0906 18.2384V18.2384ZM16.7579 23.5926C16.9432 23.5758 17.1298 23.5824 17.3135 23.6122C17.3395 23.6163 17.3285 23.6571 17.3026 23.653C17.1224 23.6242 16.9395 23.6181 16.7579 23.6349C16.7316 23.6373 16.7318 23.5949 16.7579 23.5926Z" fill="black"/>
<path d="M16.6708 25.0832C16.6708 25.0832 16.7964 25.1539 16.9221 25.4012C17.0477 25.6486 17.9388 25.9785 18.9098 25.9903C19.8808 26.002 20.2006 26.5793 20.0064 26.9563C19.8122 27.3332 19.4467 27.5924 18.5328 27.6749C17.6189 27.7573 15.5855 27.5688 15.1515 27.4039C14.7174 27.239 14.965 25.3815 15.1515 25.1892C15.5284 24.8004 16.6708 25.0832 16.6708 25.0832Z" fill="#1C5376"/>
<mask id="mask0_1386_2018" style="mask-type:luminance" maskUnits="userSpaceOnUse" x="14" y="24" width="7" height="4">
<path d="M16.6708 25.0832C16.6708 25.0832 16.7964 25.1539 16.9221 25.4012C17.0477 25.6486 17.9388 25.9785 18.9098 25.9903C19.8808 26.002 20.2006 26.5793 20.0064 26.9563C19.8122 27.3332 19.4467 27.5924 18.5328 27.6749C17.6189 27.7573 15.5855 27.5688 15.1515 27.4039C14.7174 27.239 14.965 25.3815 15.1515 25.1892C15.5284 24.8004 16.6708 25.0832 16.6708 25.0832Z" fill="white"/>
</mask>
<g mask="url(#mask0_1386_2018)">
<path d="M20.1373 26.6566C20.1383 26.6545 20.1394 26.6525 20.1405 26.6505C20.1394 26.6525 20.1384 26.6545 20.1373 26.6566ZM20.1691 26.6022C20.1589 26.6179 20.1493 26.634 20.1405 26.6505C20.1555 26.6212 20.1689 26.5911 20.1807 26.5603L20.1691 26.6022ZM14.9777 27.0483C14.9876 27.0486 14.9972 27.0515 15.0057 27.0565C15.175 27.1381 15.3599 27.1803 15.5434 27.2195C16.2016 27.3603 16.869 27.4718 17.5417 27.4838C18.2144 27.4958 18.8949 27.4059 19.5206 27.1553C19.6485 27.1041 19.7751 27.0455 19.8843 26.9609C19.9889 26.8795 20.0753 26.7757 20.1373 26.6566C20.0016 26.9155 20.0336 27.2605 19.84 27.4809C19.7575 27.5748 19.6435 27.6334 19.5293 27.6823C19.0779 27.8755 18.5837 27.9482 18.0938 27.9587C17.6039 27.9692 17.115 27.9192 16.6268 27.876C16.1967 27.8379 15.7626 27.8042 15.3478 27.6826C15.2073 27.6414 15.0631 27.5858 14.9678 27.4734C14.8725 27.361 14.8456 27.1766 14.9452 27.0681C14.9533 27.0575 14.9649 27.0505 14.9777 27.0483Z" fill="white"/>
<path d="M18.5917 25.8474L18.5715 25.8715L19.2382 25.9561C19.4029 25.977 19.573 25.9998 19.7155 26.0874C19.8607 26.1767 19.9626 26.3249 20.0423 26.4786C20.0851 26.5613 20.1238 26.654 20.1067 26.7461C20.0949 26.8091 20.0581 26.8639 20.0187 26.9136C19.6645 27.3594 19.0782 27.5128 18.5332 27.6406L18.2424 27.7088C18.2062 27.7173 18.1663 27.7253 18.1335 27.7073C18.1039 27.6909 18.0879 27.6571 18.0762 27.6245C18.0043 27.4236 18.0279 27.2007 18.0641 26.9898C18.1369 26.5657 18.2723 26.1249 18.5917 25.8474Z" fill="white"/>
<path d="M16.1051 24.9296C16.1777 25.3491 16.3131 25.7709 16.5868 26.0986C16.7099 26.2484 16.8603 26.372 17.0295 26.4622C17.2339 26.5688 17.4571 26.5961 17.6817 26.6224C17.9256 26.6491 18.1659 26.7034 18.3983 26.7845C18.4231 26.7933 18.4124 26.8342 18.3874 26.8253C18.1586 26.7451 17.9219 26.6913 17.6817 26.6647C17.4679 26.6397 17.2546 26.6151 17.0565 26.5223C16.698 26.3545 16.4329 26.026 16.2728 25.6618C16.1719 25.4323 16.1083 25.1883 16.0655 24.9408C16.0609 24.9142 16.1004 24.9028 16.1051 24.9296ZM15.777 26.8996C15.8784 26.8996 15.9776 26.8686 16.0619 26.8105C16.1463 26.7523 16.212 26.6697 16.2508 26.5731C16.2896 26.4765 16.2998 26.3701 16.28 26.2675C16.2602 26.1649 16.2114 26.0707 16.1396 25.9967C16.0679 25.9228 15.9765 25.8724 15.8771 25.852C15.7776 25.8316 15.6745 25.8421 15.5808 25.8821C15.487 25.9221 15.4069 25.9899 15.3506 26.0769C15.2942 26.1639 15.2642 26.2661 15.2642 26.3707C15.2643 26.5109 15.3184 26.6454 15.4145 26.7445C15.5107 26.8437 15.641 26.8994 15.777 26.8996ZM15.777 25.8983C15.8676 25.8983 15.9562 25.926 16.0315 25.9779C16.1069 26.0298 16.1656 26.1036 16.2003 26.1899C16.235 26.2763 16.244 26.3713 16.2264 26.4629C16.2087 26.5546 16.165 26.6387 16.101 26.7048C16.0369 26.7709 15.9553 26.8159 15.8664 26.8341C15.7775 26.8523 15.6854 26.843 15.6017 26.8072C15.518 26.7715 15.4464 26.7109 15.3961 26.6332C15.3457 26.5555 15.3189 26.4642 15.3189 26.3707C15.319 26.2455 15.3673 26.1254 15.4532 26.0368C15.5391 25.9482 15.6555 25.8984 15.777 25.8983Z" fill="white"/>
</g>
<path d="M16.6653 24.0525V25.3601C16.6653 25.3601 15.9456 25.7842 15.3459 25.2541C15.2602 24.1762 15.3459 23.9641 15.3459 23.9641L16.6653 24.0525Z" fill="#FF8A65"/>
<path d="M12.3645 14.4448C12.3645 14.4448 17.6764 15.7243 18.1219 16.4868C18.5674 17.2492 18.3104 21.0484 17.6078 22.0733C17.2651 23.7697 17.7963 23.8404 16.991 24.0347C16.9567 24.4765 17.0766 24.4235 16.6483 24.4235C16.2199 24.4235 15.3117 24.4765 15.1575 24.2115C15.1232 23.7874 15.3631 23.9641 14.9861 23.5753C14.6092 23.1866 14.4892 22.7801 14.6263 21.0838C14.7634 19.3874 15.2946 19.1223 15.0547 18.6452L14.712 18.4862C14.712 18.4862 13.3926 18.4862 12.8785 18.4508C12.3645 18.4155 10.1375 18.3707 9.82021 17.5096C9.50287 16.6484 12.3645 14.4448 12.3645 14.4448Z" fill="#F04766"/>
<path d="M10.2873 15.954C11.1877 16.4932 12.1643 16.884 13.1818 17.112C13.717 17.2316 14.261 17.3066 14.7929 17.4422C15.1999 17.5459 15.6226 17.7159 15.795 18.1439C15.9693 18.5764 15.8779 19.0808 15.8424 19.5315C15.8204 19.8105 15.8029 20.0894 15.7923 20.3691C15.7804 20.684 15.7615 20.9984 15.7386 21.3127C15.721 21.5541 15.6873 21.7918 15.6542 22.0314C15.6097 22.3524 15.5669 22.6739 15.5374 22.9968C15.5239 23.1457 15.5128 23.2951 15.51 23.4447C15.5081 23.5507 15.5065 23.6616 15.5293 23.7656C15.5345 23.7967 15.546 23.8264 15.5629 23.8527C15.5787 23.8746 15.5431 23.8957 15.5275 23.8741C15.4862 23.8164 15.4799 23.7329 15.4742 23.6641C15.4659 23.5401 15.4661 23.4157 15.4746 23.2917C15.4913 22.9747 15.5298 22.659 15.5708 22.3445C15.6045 22.0865 15.6446 21.8294 15.6757 21.5711C15.7147 21.2474 15.7273 20.9174 15.7422 20.5916C15.7527 20.3633 15.7595 20.135 15.7741 19.907C15.7873 19.7025 15.8036 19.4982 15.8207 19.294C15.8406 19.056 15.864 18.8167 15.8466 18.5777C15.8291 18.3373 15.7648 18.0942 15.6078 17.9094C15.4564 17.7311 15.2432 17.6264 15.0283 17.5542C14.5287 17.3866 13.997 17.3198 13.4825 17.218C12.4777 17.0193 11.5064 16.6783 10.6021 16.183C10.489 16.1211 10.3772 16.0569 10.2666 15.9905C10.262 15.9876 10.2588 15.983 10.2575 15.9776C10.2563 15.9723 10.2571 15.9666 10.2597 15.9619C10.2624 15.9571 10.2668 15.9537 10.272 15.9522C10.2771 15.9507 10.2826 15.9514 10.2873 15.954Z" fill="white"/>
<path d="M10.618 15.6588C11.421 16.1397 12.2851 16.5028 13.1853 16.7377C13.6584 16.8608 14.1404 16.9379 14.6189 17.034C14.8467 17.0797 15.0756 17.1274 15.2983 17.1953C15.4783 17.2502 15.6575 17.3224 15.81 17.4372C16.1317 17.6794 16.2247 18.0704 16.2244 18.4626C16.2242 18.6869 16.1999 18.9108 16.1808 19.1341C16.1619 19.357 16.1429 19.5798 16.124 19.8027C16.056 20.6068 15.9999 21.4121 15.9306 22.216C15.9083 22.4748 15.876 22.7326 15.8576 22.9918C15.8384 23.2609 15.8071 23.5613 15.8731 23.8262C15.8817 23.867 15.8979 23.9056 15.9208 23.9401C15.9365 23.962 15.9009 23.9831 15.8854 23.9614C15.834 23.8899 15.8211 23.7919 15.8113 23.706C15.798 23.5697 15.7944 23.4326 15.8006 23.2958C15.8093 23.0002 15.8394 22.7057 15.8701 22.4118C15.9461 21.6818 15.9873 20.947 16.0483 20.2155C16.0844 19.7832 16.121 19.3509 16.1582 18.9187C16.1928 18.5124 16.2349 18.0403 15.9941 17.6873C15.7453 17.3226 15.2769 17.2213 14.8805 17.1324C14.4023 17.0251 13.9172 16.9535 13.4395 16.8435C12.5541 16.6393 11.6997 16.3117 10.9 15.8697C10.7982 15.8134 10.6972 15.7553 10.5973 15.6953C10.5928 15.6924 10.5896 15.6877 10.5884 15.6824C10.5871 15.6771 10.5879 15.6715 10.5906 15.6667C10.5933 15.662 10.5976 15.6585 10.6027 15.657C10.6079 15.6556 10.6133 15.6562 10.618 15.6588V15.6588Z" fill="white"/>
<path d="M21.3543 12.3486C22.0169 12.9848 22.0397 13.7858 21.3543 13.9036C20.6689 14.0214 19.4352 13.3146 19.4352 13.3146V12.49C19.4352 12.49 20.6918 11.7125 21.3543 12.3486Z" fill="#FF8A65"/>
<mask id="mask1_1386_2018" style="mask-type:luminance" maskUnits="userSpaceOnUse" x="19" y="12" width="3" height="2">
<path d="M19.4352 12.49C19.4352 12.49 20.6918 11.7125 21.3543 12.3486C22.0169 12.9847 22.0397 13.7858 21.3543 13.9036C20.6689 14.0214 19.4352 13.3146 19.4352 13.3146V12.49Z" fill="white"/>
</mask>
<g mask="url(#mask1_1386_2018)">
<path d="M21.264 14.0038L21.3062 13.9794C21.3013 13.9863 21.295 13.9921 21.2877 13.9963C21.2804 14.0005 21.2723 14.0031 21.264 14.0038ZM21.3473 13.0346C21.5342 13.3504 21.2659 13.5263 21.1825 13.7621C21.1621 13.8198 21.1423 13.8841 21.1642 13.9413C21.1727 13.961 21.1868 13.9775 21.2046 13.9887C21.2225 13.9998 21.2432 14.0051 21.264 14.0038L21.1381 14.0766C20.9091 13.999 20.6601 14.0214 20.4231 13.9763C20.1861 13.9311 19.9345 13.7805 19.8991 13.5346C19.8752 13.369 19.956 13.2086 20.0341 13.0618C20.0876 12.9614 20.8208 12.1449 21.3473 13.0346Z" fill="#E54F2C"/>
</g>
<path d="M15.3003 1.31055L15.5859 1.93491L12.9586 4.5625C12.9586 4.5625 11.5992 4.04949 11.8162 2.73303C12.0333 1.41658 15.3004 1.31056 15.3004 1.31056L15.3003 1.31055Z" fill="#601416"/>
<path d="M12.7545 3.41614C12.7545 3.41614 13.8951 3.28955 13.8951 2.50027C14.1691 2.73587 14.946 2.59451 14.9346 1.9348C14.9232 1.2751 15.5857 1.9348 15.5857 1.9348C15.5857 1.9348 15.6429 3.03039 16.0884 3.25421C15.3573 3.92569 14.8775 5.51605 14.3292 5.26866C14.0207 5.83412 13.9636 6.23465 13.9636 6.23465L12.4672 5.35112L12.9584 4.32623C12.9584 4.32623 12.2503 4.3617 12.2501 3.84322C12.2499 3.03039 12.7545 3.41614 12.7545 3.41614Z" fill="#FF8A65"/>
<mask id="mask2_1386_2018" style="mask-type:luminance" maskUnits="userSpaceOnUse" x="12" y="1" width="5" height="6">
<path d="M15.5857 1.9348C15.5857 1.9348 15.6429 3.03039 16.0884 3.25421C15.3573 3.92569 14.8775 5.51605 14.3292 5.26866C14.0207 5.83412 13.9636 6.23465 13.9636 6.23465L12.4672 5.35112L12.9584 4.32623C12.9584 4.32623 12.2503 4.3617 12.2501 3.84322C12.2499 3.03039 12.7545 3.41614 12.7545 3.41614C12.7545 3.41614 13.8951 3.28955 13.8951 2.50026C14.1691 2.73587 14.946 2.59451 14.9346 1.9348C14.9232 1.2751 15.5857 1.9348 15.5857 1.9348Z" fill="white"/>
</mask>
<g mask="url(#mask2_1386_2018)">
<path d="M12.7856 2.76168C13.007 2.59083 13.2608 2.46686 13.4731 2.28417C13.7338 2.05988 13.9288 1.74991 14.2287 1.58583C14.3611 1.5134 14.5077 1.47333 14.6543 1.44123C14.8031 1.40867 14.9576 1.38374 15.1065 1.41572C15.2554 1.44771 15.3989 1.54744 15.4467 1.69633L15.3857 1.66756C15.2621 1.75296 15.8619 2.07352 15.8371 2.22483C15.7966 2.47209 15.0937 2.3007 14.9231 2.47941C14.7525 2.65811 14.4778 3.02326 14.2545 2.92395C14.1934 2.89681 14.1274 2.8559 14.0654 2.88069C14.0039 2.9053 13.9815 2.98072 13.9574 3.04407C13.8938 3.211 13.7698 3.34586 13.6115 3.42011C13.4532 3.49437 13.2731 3.50219 13.1093 3.44192C13.0804 3.43132 13.0502 3.41844 13.0202 3.42481C12.9977 3.42959 12.9785 3.44473 12.9569 3.45268C12.899 3.47391 12.8365 3.44131 12.7851 3.40685C12.6843 3.3394 12.5832 3.24732 12.5701 3.12416C12.5545 2.97648 12.6703 2.85071 12.7856 2.76168ZM12.5738 3.81663C12.5789 3.81268 12.5827 3.80731 12.5849 3.80116C12.5876 3.78969 12.5784 3.77925 12.5707 3.77052C12.5498 3.74635 12.5346 3.71744 12.5265 3.68611C12.5184 3.65478 12.5176 3.62192 12.524 3.59019C12.5288 3.56777 12.541 3.54299 12.5629 3.53938C12.5735 3.53834 12.584 3.54062 12.5933 3.54593C12.639 3.56879 12.6663 3.61707 12.6949 3.66043L12.8961 3.87167C12.9022 3.91759 12.8905 3.96883 12.8554 3.99787C12.8248 4.02327 12.7828 4.02742 12.7435 4.02773C12.6899 4.02814 12.6364 4.02337 12.5837 4.01348C12.563 4.01129 12.5433 4.00329 12.5267 3.99037C12.502 3.96766 12.4996 3.92719 12.5122 3.8957C12.527 3.86508 12.548 3.83809 12.5738 3.81663ZM13.4553 4.55423C13.4893 4.55793 13.5195 4.57749 13.5475 4.59753C13.6103 4.64242 13.6694 4.69241 13.7285 4.74235L14.3926 5.30391L14.3427 5.36717C14.3256 5.55199 14.308 5.73923 14.2456 5.91335C14.2341 5.94551 14.2197 5.97889 14.1923 5.99828C14.1346 6.03909 14.0573 5.99828 13.9993 5.95794C13.7865 5.81007 13.5694 5.65793 13.417 5.44498C13.2647 5.23203 13.1871 4.94274 13.2849 4.69806C13.3149 4.62286 13.3769 4.54571 13.4553 4.55423Z" fill="#E54F2C"/>
</g>
<path d="M14.4321 2.76122C14.4371 2.76122 14.442 2.7598 14.4463 2.75711C14.4506 2.75443 14.4541 2.75057 14.4564 2.74597C14.5708 2.51808 14.9703 2.60935 14.9743 2.61031C14.9814 2.61198 14.9888 2.61069 14.995 2.60671C15.0011 2.60274 15.0055 2.59641 15.0071 2.58912C15.0087 2.58183 15.0075 2.57417 15.0036 2.56782C14.9998 2.56148 14.9936 2.55698 14.9866 2.55531C14.9095 2.53882 14.8307 2.53229 14.752 2.53586C14.583 2.54458 14.4639 2.60826 14.4078 2.72004C14.4057 2.72434 14.4046 2.72913 14.4048 2.73397C14.4049 2.73881 14.4063 2.74352 14.4087 2.74766C14.4112 2.7518 14.4146 2.75522 14.4187 2.75759C14.4228 2.75997 14.4274 2.76121 14.4321 2.76122Z" fill="black"/>
<path d="M14.792 3.2131C14.7194 3.2131 14.6606 3.13135 14.6606 3.0305C14.6606 2.92965 14.7194 2.8479 14.792 2.8479C14.8645 2.8479 14.9233 2.92965 14.9233 3.0305C14.9233 3.13135 14.8645 3.2131 14.792 3.2131Z" fill="black"/>
<path d="M16.0072 3.27683C16.0126 3.27532 16.0184 3.27561 16.0237 3.27766C16.029 3.27971 16.0335 3.28342 16.0367 3.28826C16.0398 3.2931 16.0414 3.29884 16.0412 3.30467C16.0411 3.3105 16.0391 3.31613 16.0357 3.32076C15.9452 3.44252 15.7647 3.72099 15.7115 4.06715C15.6394 4.53554 15.5744 5.05672 15.2431 5.19808C14.9118 5.33944 14.1692 5.41013 13.8038 5.00959C13.5057 4.68289 13.5296 4.22795 13.665 3.48992C14.5056 3.65175 15.6892 3.36203 16.0072 3.27683Z" fill="white"/>
<mask id="mask3_1386_2018" style="mask-type:luminance" maskUnits="userSpaceOnUse" x="13" y="3" width="4" height="3">
<path d="M16.0072 3.27683C15.6892 3.36203 14.5056 3.65175 13.665 3.48992C13.5296 4.22795 13.5057 4.68289 13.8038 5.00959C14.1692 5.41013 14.9118 5.33944 15.2431 5.19808C15.5744 5.05672 15.6394 4.53554 15.7115 4.06715C15.7647 3.72101 15.9452 3.44252 16.0357 3.32076C16.0391 3.31613 16.0411 3.3105 16.0412 3.30467C16.0414 3.29884 16.0398 3.2931 16.0367 3.28826C16.0335 3.28342 16.029 3.27971 16.0237 3.27766C16.0184 3.27561 16.0126 3.27532 16.0072 3.27683Z" fill="white"/>
</mask>
<g mask="url(#mask3_1386_2018)">
<path d="M14.4834 3.91958C14.5054 3.92094 14.736 3.94616 14.7579 3.94742C15.1401 3.96915 15.5448 3.95277 15.8716 3.74731L16.0708 3.92848C16.0816 3.94262 16.0627 3.96053 16.0466 3.96772C15.7694 4.09189 15.471 4.1578 15.1688 4.1616C15.0144 4.16344 14.6871 4.15825 14.5648 4.06093C14.5394 4.04072 14.0614 3.89302 14.4834 3.91958ZM15.808 4.3062L15.9366 4.43126C15.7427 4.56758 15.5725 4.38665 15.4112 4.56239C15.1945 4.79855 14.3382 4.56521 14.2264 4.3525C14.5991 4.31682 14.9803 4.5624 15.808 4.3062Z" fill="#CAEAF9"/>
</g>
<path d="M13.6565 3.60052C13.6633 3.60053 13.6699 3.59791 13.6749 3.59317C13.68 3.58844 13.6831 3.58193 13.6838 3.57493C13.6844 3.56793 13.6825 3.56093 13.6783 3.55532C13.6742 3.54971 13.6682 3.54588 13.6615 3.54459L12.815 3.37973C12.8114 3.37898 12.8077 3.37896 12.8042 3.37968C12.8006 3.3804 12.7972 3.38184 12.7942 3.38392C12.7912 3.38601 12.7886 3.38869 12.7866 3.39182C12.7846 3.39494 12.7832 3.39844 12.7826 3.40212C12.7819 3.4058 12.7819 3.40958 12.7827 3.41324C12.7834 3.4169 12.7849 3.42037 12.787 3.42345C12.789 3.42652 12.7917 3.42914 12.7948 3.43115C12.7978 3.43316 12.8012 3.43452 12.8048 3.43515L13.6514 3.60001C13.6531 3.60035 13.6548 3.60052 13.6565 3.60052ZM13.665 4.82684C13.6709 4.82685 13.6766 4.82489 13.6814 4.82125C13.6861 4.81761 13.6896 4.81248 13.6913 4.80665C13.6929 4.80081 13.6927 4.79456 13.6907 4.78885C13.6886 4.78314 13.6849 4.77826 13.6799 4.77496L12.9733 4.30263C12.9672 4.29856 12.9598 4.29715 12.9527 4.29872C12.9456 4.30028 12.9394 4.30468 12.9355 4.31096C12.9315 4.31724 12.9301 4.32488 12.9317 4.33219C12.9332 4.33951 12.9374 4.3459 12.9435 4.34997L13.6501 4.8223C13.6545 4.82526 13.6597 4.82684 13.665 4.82684Z" fill="white"/>
<path d="M13.187 0.152999C14.7913 -0.379993 15.1661 0.594776 15.5003 1.31044C15.5003 1.31044 16.8111 1.72569 16.3827 2.07027C15.9544 2.41485 13.9752 2.16745 13.5126 1.89357C12.2103 2.54736 11.8162 2.73291 11.8162 2.73291C11.8162 2.73291 11.1394 0.833321 13.187 0.152999Z" fill="#00469E"/>
<path d="M13.0186 2.14087C13.0186 2.14087 13.0108 4.24074 13.6892 4.93294C13.432 4.93294 13.2758 4.69216 13.1 4.42086C12.9242 4.14953 12.5491 2.9857 12.6967 2.30123L13.0186 2.14087Z" fill="black"/>
<path d="M12.147 5.51585C12.147 5.51585 12.0949 5.26175 12.4976 5.28719C12.553 5.29116 12.6082 5.2986 12.6628 5.30946C13.109 5.3957 13.7111 5.72154 14.0027 6.06011C14.0908 6.16224 14.1504 6.26578 14.1689 6.36403C14.1953 6.50399 14.2046 6.70331 14.2046 6.90724C14.2049 7.1267 14.1947 7.35147 14.1851 7.51439V7.51545C14.1768 7.6593 14.1689 7.75435 14.1689 7.75435C14.1689 7.75435 14.1347 9.35637 14.683 9.80416C15.2313 10.2516 15.2759 10.9821 15.2759 10.9821C15.6885 10.8407 15.7341 11.3355 15.7341 11.3355C15.7341 11.3355 17.9503 11.1234 18.6128 11.6182C19.2752 12.113 19.4808 12.2307 19.4808 12.2307C19.4808 12.2307 19.682 11.9313 19.6865 12.3572V12.372C19.6865 12.7311 19.7307 13.1502 19.524 13.3634C19.4679 13.4205 19.3978 13.4607 19.3211 13.4796C18.8869 13.5973 17.1337 14.1158 15.486 13.4796C13.3115 13.1025 13.6532 13.1969 13.3115 12.6784C13.4339 13.8924 13.951 13.9536 13.5212 14.2165C13.4671 14.2497 13.3982 14.2858 13.3115 14.3278C13.1687 14.3953 13.0345 14.4806 12.9119 14.5819C12.5202 14.9085 12.3917 15.3039 11.5301 15.8592C11.27 16.027 11.0291 16.237 10.8094 16.4543C10.8091 16.4543 10.8091 16.455 10.8091 16.455C10.6223 16.6391 10.451 16.8289 10.2961 17.0024C10.1141 17.2057 9.95474 17.3866 9.81971 17.5096C9.64562 17.6686 9.51229 17.7322 9.42285 17.6262C9.41641 17.6188 9.41056 17.6109 9.40538 17.6025C9.13122 17.1784 9.24568 16.778 8.7659 16.4953C8.28612 16.2126 8.37727 14.1158 8.7659 12.8668C9.15418 11.6182 10.3423 6.17567 12.147 5.51585Z" fill="#00469E"/>
<path d="M11.1663 13.9432C11.5141 13.5994 11.9975 13.4526 12.461 13.3173C11.78 13.6922 11.2278 14.6435 10.6484 15.1694C10.6283 15.1876 10.6038 15.2068 10.5775 15.2018C10.5258 15.1919 10.5309 15.1139 10.5495 15.0632C10.6985 14.6583 10.8631 14.2429 11.1663 13.9432ZM13.4392 6.03655C13.3081 6.01591 13.1797 5.9803 13.0563 5.93038L13.2949 6.18177C13.145 6.16912 13.0288 6.0485 12.9101 5.95317C12.5193 5.6393 12.0029 5.56055 11.5119 5.49241C11.7422 5.43811 11.7728 5.37858 12.0089 5.37135C12.5344 5.35525 13.005 5.73091 13.4392 6.03655Z" fill="#82A4CF"/>
<path d="M20.2843 13.6836C20.23 13.4464 20.3724 13.2086 20.6025 13.1526C20.8326 13.0966 21.0632 13.2435 21.1175 13.4808C21.1718 13.7181 21.0293 13.9558 20.7992 14.0118C20.5691 14.0678 20.3386 13.9209 20.2843 13.6836Z" fill="#422B18"/>
<path d="M14.0681 6.60586C14.128 6.69872 14.1741 6.80034 14.2048 6.90733C14.2052 7.12679 14.1949 7.35156 14.1853 7.51449C14.1726 7.47349 14.1582 7.4332 14.1431 7.39326C14.0201 7.07095 13.8289 6.78151 13.6301 6.50232C13.687 6.48854 13.7468 6.49804 13.797 6.52882C13.7394 6.45247 13.6819 6.37614 13.6243 6.2998C13.8056 6.32632 13.9646 6.45 14.0681 6.60586Z" fill="#82A4CF"/>
<path d="M18.4026 27.4178C18.6219 27.3801 18.8445 27.3593 19.0608 27.3043C19.3122 27.2404 19.5488 27.0849 19.687 26.8557C19.7009 26.8326 19.7364 26.8538 19.7224 26.877C19.5893 27.0979 19.3636 27.2611 19.1219 27.3315C18.891 27.3988 18.6495 27.418 18.4135 27.4586C18.3877 27.4631 18.3766 27.4223 18.4026 27.4178Z" fill="#1C5376"/>
<path opacity="0.51" d="M12.68 0.833252C12.7425 0.834944 12.6781 0.856944 12.7099 0.91241C12.7336 0.953702 12.8028 0.984544 12.7782 1.02526C12.7536 1.06597 12.7165 1.09666 12.6823 1.12917C12.5313 1.27333 12.4277 1.46258 12.3861 1.67045C12.3736 1.7338 12.3667 1.79942 12.3398 1.85783C12.3129 1.91623 12.25 1.80135 12.1873 1.80244C12.1294 1.80345 12.087 1.9266 12.0608 1.87327C12.0346 1.81994 12.0305 1.75806 12.0324 1.69832C12.0447 1.3094 12.3183 0.943971 12.68 0.833252Z" fill="white"/>
<path opacity="0.51" d="M12.9513 0.591618C13.0126 0.580788 13.1126 0.583213 13.0999 0.645984C13.0884 0.703283 13.3428 0.825185 12.9162 0.818783C12.8736 0.818148 12.8247 0.790183 12.8255 0.746267C12.8267 0.731437 12.8312 0.717079 12.8385 0.704298C12.8688 0.644362 12.897 0.629442 12.9513 0.591618Z" fill="white"/>
<path d="M6.22107 15.1451H4.76653V16.6118H3.79683V15.1451H2.34229V14.1674H3.79683V12.7007H4.76653V14.1674H6.22107V15.1451Z" fill="white"/>
</svg>
